Coordinates
version=1
nRows=11
nColumns=63
inDegrees=yes

Units are S.I. units (second, meters, Newtons, ...)
If the header above contains a line with 'inDegrees', this indicates whether rotational values are in degrees (yes) or radians (no).

endheader
time	pelvis_tilt	pelvis_list	pelvis_rotation	pelvis_tx	pelvis_ty	pelvis_tz	hip_flexion_r	hip_adduction_r	hip_rotation_r	knee_angle_r	knee_angle_r_beta	ankle_angle_r	subtalar_angle_r	mtp_angle_r	hip_flexion_l	hip_adduction_l	hip_rotation_l	knee_angle_l	knee_angle_l_beta	ankle_angle_l	subtalar_angle_l	mtp_angle_l	L5_S1_Flex_Ext	L5_S1_Lat_Bending	L5_S1_axial_rotation	L4_L5_Flex_Ext	L4_L5_Lat_Bending	L4_L5_axial_rotation	L3_L4_Flex_Ext	L3_L4_Lat_Bending	L3_L4_axial_rotation	L2_L3_Flex_Ext	L2_L3_Lat_Bending	L2_L3_axial_rotation	L1_L2_Flex_Ext	L1_L2_Lat_Bending	L1_L2_axial_rotation	L1_T12_Flex_Ext	L1_T12_Lat_Bending	L1_T12_axial_rotation	Abs_r3	Abs_r2	Abs_r1	Abs_t1	Abs_t2	neck_flexion	neck_bending	neck_rotation	arm_flex_r	arm_add_r	arm_rot_r	elbow_flex_r	pro_sup_r	wrist_flex_r	wrist_dev_r	arm_flex_l	arm_add_l	arm_rot_l	elbow_flex_l	pro_sup_l	wrist_flex_l	wrist_dev_l
5.900000	-0.510825	-1.589121	94.428794	0.286934	0.789466	0.595797	-4.855361	1.164265	-0.537369	3.000688	0.052372	28.430154	3.878203	0.000000	-1.106778	-0.921862	1.672052	6.148327	0.107309	30.335939	9.494607	0.000000	-0.088376	-0.079569	-0.372047	-0.164124	-0.105827	-0.395300	-0.145194	-0.193464	-0.395300	-0.101005	-0.193464	-0.325541	-0.082066	-0.162257	-0.302288	-0.050498	-0.123252	-0.279035	-0.631263	-0.900099	-2.069212	0.000000	0.000000	23.925264	1.642754	-0.040239	15.114225	-11.108653	70.085492	46.097769	72.635633	0.608541	-4.842683	16.672576	-12.390280	63.518974	48.734302	65.150931	8.043555	-6.804326
5.916667	-0.438090	-1.624346	94.821782	0.286875	0.789527	0.595871	-4.981264	1.335484	-0.073722	2.639138	0.046062	28.084681	2.865502	0.000000	-0.983521	-1.038550	1.895380	6.195941	0.108140	30.498298	9.713168	0.000000	-0.091811	-0.099039	-0.366235	-0.170503	-0.131722	-0.389124	-0.150837	-0.240804	-0.389124	-0.104931	-0.240804	-0.320455	-0.085256	-0.201961	-0.297566	-0.052461	-0.153412	-0.274676	-0.655799	-1.120351	-2.036887	0.000000	0.000000	23.976479	1.958074	-0.155410	14.775101	-11.058554	69.527361	46.014123	71.870980	0.879275	-4.744344	16.980911	-12.382496	64.040495	48.706042	65.226147	7.879256	-6.783192
5.933333	-0.357136	-1.690126	95.202835	0.286823	0.789574	0.596111	-5.028467	1.503296	0.322684	2.336425	0.040778	27.735330	1.925674	0.000000	-0.809424	-1.157493	2.100103	6.241175	0.108929	30.655764	9.912937	0.000000	-0.096657	-0.117062	-0.366146	-0.179501	-0.155692	-0.389030	-0.158797	-0.284624	-0.389030	-0.110469	-0.284624	-0.320378	-0.089755	-0.238713	-0.297494	-0.055230	-0.181329	-0.274610	-0.690409	-1.324228	-2.036394	0.000000	0.000000	24.081561	2.176363	-0.361695	14.475171	-11.000532	68.969977	45.908978	71.007528	1.210241	-4.676386	17.271625	-12.374822	64.453304	48.688657	65.375911	7.696345	-6.715053
5.950000	-0.271622	-1.788234	95.546872	0.286800	0.789598	0.596506	-4.986081	1.656819	0.503038	2.112466	0.036869	27.443267	1.304216	0.000000	-0.592764	-1.271791	2.293677	6.270312	0.109438	30.793994	10.055996	0.000000	-0.101418	-0.133881	-0.366941	-0.188343	-0.178062	-0.389875	-0.166620	-0.325519	-0.389875	-0.115911	-0.325519	-0.321074	-0.094177	-0.273011	-0.298140	-0.057950	-0.207382	-0.275206	-0.724419	-1.514493	-2.040818	0.000000	0.000000	24.235056	2.297509	-0.669556	14.231150	-10.951957	68.571499	45.824048	69.084227	1.618992	-4.524213	17.566043	-12.369498	64.844899	48.674136	65.440547	7.472425	-6.610679
5.966667	-0.184663	-1.930057	95.843772	0.286832	0.789568	0.597019	-4.850350	1.799320	0.696082	1.954329	0.034109	27.177317	0.702744	0.000000	-0.328189	-1.378811	2.449720	6.277563	0.109564	30.914806	10.165450	0.000000	-0.102355	-0.149592	-0.370716	-0.190084	-0.198957	-0.393885	-0.168160	-0.363718	-0.393885	-0.116982	-0.363718	-0.324376	-0.095047	-0.305048	-0.301206	-0.058486	-0.231718	-0.278037	-0.731114	-1.692215	-2.061809	0.000000	0.000000	24.422468	2.337982	-1.009571	14.063754	-10.891617	68.293073	45.701302	67.317408	1.997152	-4.509647	17.830193	-12.373546	65.153179	48.652126	65.561009	7.266496	-6.557980
5.983333	-0.100386	-2.096998	96.090753	0.286911	0.789499	0.597624	-4.649047	1.924156	0.800041	1.853991	0.032358	26.976411	0.279186	0.000000	-0.035594	-1.474876	2.552322	6.271148	0.109452	31.031648	10.261320	0.000000	-0.101289	-0.164409	-0.377189	-0.188104	-0.218663	-0.400763	-0.166408	-0.399743	-0.400763	-0.115763	-0.399743	-0.330040	-0.094057	-0.335262	-0.306466	-0.057877	-0.254669	-0.282891	-0.723497	-1.859822	-2.097809	0.000000	0.000000	24.633169	2.336008	-1.331914	13.979919	-10.831086	68.236668	45.574184	65.067936	2.348061	-4.533687	18.063387	-12.387034	65.376219	48.643526	65.649046	7.056131	-6.483194
6.000000	-0.015654	-2.278649	96.286191	0.287040	0.789395	0.598298	-4.402758	2.036120	0.806100	1.799529	0.031408	26.846146	0.047913	0.000000	0.273570	-1.562609	2.626316	6.258813	0.109237	31.152724	10.307585	0.000000	-0.098964	-0.178138	-0.383379	-0.183786	-0.236924	-0.407340	-0.162588	-0.433125	-0.407340	-0.113106	-0.433125	-0.335456	-0.091898	-0.363259	-0.311495	-0.056548	-0.275936	-0.287534	-0.706891	-2.015133	-2.132237	0.000000	0.000000	24.861862	2.294491	-1.627732	13.940274	-10.772028	68.211178	45.461440	63.005018	2.699564	-4.549102	18.283326	-12.413916	65.568546	48.665875	65.590635	6.814374	-6.354313
6.016667	0.054919	-2.491778	96.421112	0.287222	0.789236	0.598982	-4.091140	2.116748	0.721327	1.810714	0.031603	26.801555	0.008598	0.000000	0.595383	-1.626490	2.645344	6.206526	0.108324	31.249668	10.344917	0.000000	-0.090343	-0.191804	-0.392731	-0.167775	-0.255099	-0.417277	-0.148424	-0.466352	-0.417277	-0.103253	-0.466352	-0.343640	-0.083892	-0.391127	-0.319094	-0.051622	-0.297104	-0.294549	-0.645309	-2.169724	-2.184254	0.000000	0.000000	25.056349	2.268711	-1.758712	13.964210	-10.693956	68.278407	45.326258	61.732035	2.900158	-4.648338	18.454617	-12.450776	65.686490	48.686843	65.483389	6.585336	-6.280592
6.033333	0.120058	-2.729996	96.451916	0.287514	0.789016	0.599670	-3.712538	2.171804	0.514956	1.905619	0.033259	26.852841	0.254399	0.000000	0.914213	-1.680154	2.602576	6.110390	0.106646	31.318289	10.360635	0.000000	-0.077516	-0.204660	-0.392792	-0.143955	-0.272197	-0.417342	-0.127351	-0.497609	-0.417342	-0.088593	-0.497609	-0.343693	-0.071981	-0.417342	-0.319144	-0.044293	-0.317018	-0.294594	-0.553687	-2.315150	-2.184593	0.000000	0.000000	25.252123	2.217374	-1.807488	14.039835	-10.623820	68.416407	45.183869	60.959669	3.042731	-4.874553	18.588232	-12.480711	65.752799	48.695741	65.343985	6.344814	-6.299878
6.050000	0.167006	-2.982137	96.456091	0.287844	0.788746	0.600317	-3.343114	2.216100	0.593570	1.966931	0.034329	26.845541	0.138055	0.000000	1.240092	-1.714745	2.534902	6.012313	0.104935	31.364571	10.402974	0.000000	-0.061832	-0.218868	-0.397851	-0.114829	-0.291095	-0.422716	-0.101584	-0.532157	-0.422716	-0.070668	-0.532157	-0.348119	-0.057417	-0.446316	-0.323254	-0.035331	-0.339027	-0.298388	-0.441662	-2.475883	-2.212727	0.000000	0.000000	25.413924	2.167207	-1.739705	14.141207	-10.531608	68.514156	45.036793	61.250811	3.060001	-5.095606	18.671882	-12.523951	65.736199	48.722729	65.214793	6.102120	-6.316961
6.066667	0.199948	-3.246619	96.435241	0.288191	0.788423	0.600962	-2.954219	2.237254	0.604425	2.064943	0.036040	26.868789	0.117810	0.000000	1.583731	-1.733671	2.447643	5.938597	0.103648	31.385150	10.464350	0.000000	-0.045412	-0.233183	-0.409412	-0.084335	-0.310133	-0.435001	-0.074608	-0.566960	-0.435001	-0.051902	-0.566960	-0.358236	-0.042170	-0.475506	-0.332648	-0.025949	-0.361200	-0.307059	-0.324376	-2.637807	-2.277029	0.000000	0.000000	25.571077	2.067356	-1.569362	14.301183	-10.427444	68.682969	44.903569	62.229782	2.891698	-5.237482	18.702402	-12.580319	65.623932	48.783606	64.960118	5.854342	-6.240210
